<?xml version="1.0" standalone="no"?>
<!DOCTYPE svg PUBLIC "-//W3C//DTD SVG 20010904//EN"
 "http://www.w3.org/TR/2001/REC-SVG-20010904/DTD/svg10.dtd">
<svg version="1.0" xmlns="http://www.w3.org/2000/svg"
 width="513.000000pt" height="513.000000pt" viewBox="0 0 513.000000 513.000000"
 preserveAspectRatio="xMidYMid meet">
<metadata>
Created by potrace 1.14, written by Peter Selinger 2001-2017
</metadata>
<g transform="translate(0.000000,513.000000) scale(0.100000,-0.100000)"
fill="#000000" stroke="none">
<path d="M2528 4755 c-2 -1 -55 -5 -118 -9 -204 -11 -503 -79 -669 -152 -95
-42 -282 -138 -337 -173 -261 -163 -496 -396 -679 -671 -123 -186 -257 -510
-299 -725 -8 -44 -17 -89 -20 -100 -2 -11 -7 -51 -11 -88 -3 -37 -8 -78 -11
-90 -7 -33 -8 -318 -1 -352 4 -16 9 -58 12 -93 7 -65 7 -70 26 -162 64 -320
202 -630 389 -875 33 -44 69 -91 79 -105 30 -40 201 -210 261 -260 82 -69 178
-140 189 -140 5 0 11 -4 13 -8 3 -8 177 -116 188 -117 3 -1 28 -13 56 -27 105
-55 359 -149 434 -162 14 -2 43 -9 65 -14 22 -6 56 -13 75 -16 19 -3 67 -11
105 -18 115 -19 580 -14 614 7 4 1 29 6 56 9 88 12 328 77 390 106 11 5 43 18
72 29 50 20 216 102 278 139 70 41 227 151 245 172 3 3 30 25 60 50 63 51 191
179 237 236 172 213 260 354 357 574 15 36 86 244 91 270 2 8 8 33 13 55 6 22
13 51 16 65 3 14 7 36 10 50 7 29 19 118 32 230 7 63 7 296 0 355 -5 46 -16
126 -21 170 -21 155 -102 421 -177 575 -44 92 -152 284 -168 300 -3 3 -38 49
-78 103 -76 102 -238 272 -331 348 -30 24 -63 52 -73 62 -10 9 -22 17 -27 17
-5 0 -11 3 -13 8 -4 10 -111 83 -178 121 -77 45 -298 151 -313 151 -7 0 -17 4
-22 9 -10 9 -223 77 -269 85 -6 1 -36 8 -66 14 -99 20 -174 32 -245 37 -83 7
-234 13 -237 10z m157 -810 c81 -10 268 -59 290 -75 6 -4 22 -10 37 -14 15 -3
50 -20 78 -36 28 -17 53 -30 57 -30 20 0 223 -192 223 -211 0 -4 7 -15 16 -24
29 -28 101 -179 133 -277 38 -115 43 -228 12 -287 -18 -33 -24 -113 -11 -152
7 -21 17 -39 22 -39 4 0 8 -5 8 -11 0 -9 69 -100 90 -119 3 -3 17 -21 30 -40
13 -19 27 -37 30 -40 13 -11 40 -80 40 -102 0 -39 -38 -64 -182 -119 -33 -13
-37 -45 -13 -102 23 -55 19 -82 -17 -112 l-32 -27 32 -29 c52 -48 38 -85 -48
-129 -22 -11 -40 -26 -39 -33 0 -6 8 -52 17 -102 20 -100 15 -156 -14 -184
-30 -27 -102 -48 -179 -50 -250 -8 -300 -19 -336 -78 -19 -31 -21 -44 -16
-142 3 -59 2 -112 -1 -118 -8 -13 -140 -15 -163 -2 -9 4 -28 10 -43 13 -14 3
-57 14 -94 25 -65 20 -114 32 -432 106 -85 20 -171 40 -190 45 -19 6 -98 25
-175 43 -137 32 -140 34 -146 63 -3 16 1 45 9 64 48 119 80 265 75 344 -6 110
-49 219 -154 391 -81 133 -138 245 -151 294 -5 20 -16 63 -23 96 -8 33 -17 74
-21 90 -4 17 -8 96 -9 176 -4 229 37 362 161 529 47 62 152 167 200 197 186
120 377 194 539 209 33 3 62 8 65 11 5 6 259 -4 325 -12z"/>
<path d="M2238 3673 c-56 -17 -92 -58 -106 -121 -9 -40 -8 -46 25 -95 52 -78
55 -85 43 -107 -16 -30 -63 -26 -98 9 -26 27 -43 71 -66 174 -8 32 -23 31 -91
-8 -104 -60 -165 -151 -177 -265 -3 -24 -2 -25 67 -26 57 0 129 -9 155 -19 3
-1 20 -6 38 -10 36 -9 132 -89 132 -111 0 -8 4 -14 8 -14 13 0 34 -68 27 -90
-9 -27 -41 -35 -70 -16 -13 8 -44 42 -69 74 -48 63 -92 90 -76 47 24 -62 -11
-163 -70 -205 l-29 -20 -25 22 -26 23 31 64 c32 62 32 64 15 95 -38 70 -39 70
-93 46 -58 -26 -89 -53 -115 -103 -51 -100 -9 -243 93 -316 l40 -30 62 24 c52
19 149 41 167 38 3 0 23 -3 45 -6 58 -8 135 -38 161 -63 6 -5 30 -25 53 -44
44 -37 49 -54 26 -86 -19 -28 -60 -21 -87 16 -34 47 -101 73 -184 72 -73 0
-174 -25 -174 -43 0 -25 30 -78 58 -101 44 -37 90 -51 185 -57 18 -1 18 -13 3
-130 -3 -20 -8 -60 -11 -88 l-7 -53 94 0 94 0 15 38 c24 63 81 174 103 200 46
55 111 128 143 161 30 31 32 36 18 51 -8 9 -33 23 -55 30 -22 7 -40 17 -40 22
0 4 -7 8 -15 8 -10 0 -15 10 -15 29 0 34 5 39 53 46 46 8 101 -20 151 -75 34
-38 40 -41 74 -35 97 15 165 42 227 89 41 31 134 126 135 137 0 6 -26 13 -97
26 -52 8 -79 -3 -149 -67 -69 -63 -108 -76 -134 -45 -50 60 142 220 260 216
20 0 68 -12 107 -25 60 -20 75 -22 95 -12 49 26 78 49 78 62 0 8 4 14 9 14 5
0 13 12 19 28 23 61 26 58 -62 57 -94 0 -123 6 -154 35 -26 24 -29 72 -6 91
13 10 24 9 66 -6 61 -22 109 -23 143 -5 30 16 31 38 6 88 -96 187 -368 119
-394 -99 -3 -20 -7 -41 -10 -46 -4 -5 -7 -27 -9 -47 -2 -30 -8 -41 -31 -53
-42 -21 -59 -1 -64 74 -5 81 -8 87 -35 72 -13 -7 -39 -25 -60 -42 -41 -33 -67
-32 -84 2 -24 48 22 111 91 124 17 4 50 9 75 12 25 4 46 10 48 15 20 54 103
132 185 174 21 11 36 24 34 30 -7 24 -149 88 -207 93 -64 6 -69 2 -76 -53 -10
-77 -67 -147 -117 -142 -39 4 -56 49 -29 76 10 10 25 32 34 51 26 54 9 77 -72
102 -37 11 -80 22 -96 24 -16 2 -29 4 -29 5 0 9 -142 4 -177 -7z m237 -208
c40 -41 37 -85 -11 -173 l-35 -64 32 -66 c27 -58 31 -75 26 -123 -6 -68 -32
-120 -88 -178 -61 -63 -150 -93 -176 -58 -24 31 1 69 65 99 66 31 92 72 92
142 0 47 -29 123 -67 172 -13 17 -21 38 -18 45 3 8 26 27 51 42 l45 27 -2 58
c-1 31 1 67 5 80 10 30 48 29 81 -3z"/>
</g>
</svg>
